<svg id="svg_zom" width="100px" xmlns="http://www.w3.org/2000/svg" viewBox="0 0 1024 1024" xmlns:xlink="http://www.w3.org/1999/xlink"><style>#svg_zom{fill:none;stroke:#e32828;stroke-width:44;stroke-linecap:round;stroke-linejoin:round;stroke-miterlimit:10}.faded{opacity:.9}.yellow-line{stroke:#f7b21c;animation:yellow-animation 2s 2s infinite linear}.base{stroke:#d9d6d6}.zom-left{stroke-dasharray:716;animation:zom-left-animation 2s 2s infinite linear}.hc-1,.hc-2,.zom-left,.zom-right{stroke-dashoffset:0}.hc-1{stroke-dasharray:195;animation:hc-1-animation 2s 2s infinite linear}.hc-2{stroke-dasharray:260;animation:hc-2-animation 2s 2s infinite linear}.zom-right{stroke-dasharray:2400;animation:zom-right-animation 2s 2s infinite linear}@keyframes zom-left-animation{30%{stroke-dashoffset:0;opacity:0}30.1%{stroke-dashoffset:-716;opacity:0}30.2%{opacity:.9}45%{stroke-dashoffset:0}}@keyframes hc-1-animation{30%{stroke-dashoffset:0;opacity:0}30.1%{stroke-dashoffset:195}45%{opacity:.9;stroke-dashoffset:195}55%{stroke-dashoffset:0}}@keyframes hc-2-animation{30%{stroke-dashoffset:0;opacity:0}30.1%{stroke-dashoffset:-260}45%{opacity:.9;stroke-dashoffset:-260}55%{stroke-dashoffset:0}}@keyframes zom-right-animation{30%{stroke-dashoffset:0;opacity:0}30.1%{stroke-dashoffset:-2400}54%{opacity:.9;stroke-dashoffset:-2400}90%{stroke-dashoffset:0}}@keyframes yellow-animation{30%{stroke:#d9d6d6}90%{stroke:#f7b21c}}</style><g class="faded"><path class="yellow-line" d="M522 399.5L644.3 378"></path></g><path class="base" d="M336.1 740.4l-91.2-517.5c-3-17.2-15.3-31.1-32-36.3L172 173.9"></path><path class="faded zom-left" d="M336.1 740.4l-91.2-517.5c-3-17.2-15.3-31.1-32-36.3L172 173.9"></path><path class="base" d="M336.2 741.2c40-35.7 103.6-8 104 46.5 0 8.3-1.6 16.3-4.7 23.6"></path><path class="hc-1 faded" d="M336.2 741.2c40-35.7 103.6-8 104 46.5 0 8.3-1.6 16.3-4.7 23.6"></path><path class="base" d="M435.6 811.3c-7.9 19.4-25.2 34-46.8 37.8-3.5.6-7.3 1-10.9 1-56.6-.8-82.2-67.1-44.8-105.9 1-1 2.1-2 3.1-2.9"></path><path class="hc-2 faded" d="M435.6 811.3c-7.9 19.4-25.2 34-46.8 37.8-3.5.6-7.3 1-10.9 1-56.6-.8-82.2-67.1-44.8-105.9 1-1 2.1-2 3.1-2.9"></path><path class="base" d="M828.9 574l-52.5-297.8c-4.2-25.1-28.8-42.2-53.7-37.7l-322 56.8c-25.1 4.4-42.1 28.5-37.7 53.7l56.8 322c4.1 25.1 28.8 42.2 53.7 37.7l322.1-56.8h.2c25.2-5.2 50.5 12.1 55.3 37.3 2.4 12.4-.2 25-7.3 35.4-7.1 10.5-17.8 17.5-30.2 20l-1.6.3-.3.1-360.9 66.1"></path><path class="faded zom-right" d="M828.9 574l-52.5-297.8c-4.2-25.1-28.8-42.2-53.7-37.7l-322 56.8c-25.1 4.4-42.1 28.5-37.7 53.7l56.8 322c4.1 25.1 28.8 42.2 53.7 37.7l322.1-56.8h.2c25.2-5.2 50.5 12.1 55.3 37.3 2.4 12.4-.2 25-7.3 35.4-7.1 10.5-17.8 17.5-30.2 20l-1.6.3-.3.1-360.9 66.1"></path></svg>