<svg version="1.2" xmlns="http://www.w3.org/2000/svg" viewBox="0 0 200 173" width="200" height="173">
	<title>Black Minimalist Property Management Logo-svg</title>
	<defs>
		<clipPath clipPathUnits="userSpaceOnUse" id="cp1">
			<path d="m52 3.45h97v92.55h-97z"/>
		</clipPath>
		<clipPath clipPathUnits="userSpaceOnUse" id="cp2">
			<path d="m99 26h3v86.94h-3z"/>
		</clipPath>
	</defs>
	<style>
		.s0 { fill: #ffffff } 
	</style>
	<g id="Clip-Path" clip-path="url(#cp1)">
		<g id="Layer">
			<path id="Layer" class="s0" d="m148.3 47.2l-27-23.6v-18.7c0-0.8-0.6-1.5-1.5-1.5-0.8 0-1.4 0.7-1.4 1.5v16.1l-16.5-14.5c-0.6-0.5-1.4-0.5-2 0l-47.2 40.7c-0.6 0.5-0.7 1.4-0.2 2.1 0.3 0.3 0.7 0.5 1.1 0.5 0.4 0 0.7-0.1 1-0.4l46.3-39.8 17.5 15.3v69.5c0 0.8 0.6 1.5 1.5 1.5 0.8 0 1.4-0.7 1.4-1.5v-66.9l25.1 21.9c0.6 0.5 1.5 0.5 2.1-0.1 0.5-0.6 0.4-1.6-0.2-2.1z"/>
		</g>
	</g>
	<path id="Layer" class="s0" d="m62.7 56c-0.8 0-1.5 0.6-1.5 1.5v14.7c0 0.8 0.7 1.5 1.5 1.5 0.9 0 1.5-0.7 1.5-1.5v-14.7c0-0.9-0.6-1.5-1.5-1.5z"/>
	<path id="Layer" class="s0" d="m139 56c-0.8 0-1.5 0.6-1.5 1.5v14.7c0 0.8 0.7 1.5 1.5 1.5 0.8 0 1.5-0.7 1.5-1.5v-14.7c0-0.9-0.7-1.5-1.5-1.5z"/>
	<path id="Layer" class="s0" d="m81.7 38.6c-0.8 0-1.5 0.6-1.5 1.4v48.4c0 0.9 0.7 1.5 1.5 1.5 0.8 0 1.5-0.6 1.5-1.5v-48.4c0-0.8-0.7-1.4-1.5-1.4z"/>
	<g id="Clip-Path" clip-path="url(#cp2)">
		<g id="Layer">
			<path id="Layer" class="s0" d="m100.5 26.5c-0.8 0-1.5 0.6-1.5 1.5v83.6c0 0.8 0.7 1.5 1.5 1.5 0.8 0 1.5-0.7 1.5-1.5v-83.6c0-0.9-0.7-1.5-1.5-1.5z"/>
		</g>
	</g>
	<g id="Layer">
		<g id="Layer">
			<g id="Layer">
				<path id="Layer" fill-rule="evenodd" class="s0" d="m5.6 146.4v-14.6h6.2q1.3 0 2.3 0.4 0.9 0.4 1.4 1.2 0.5 0.8 0.5 1.9 0 0.9-0.5 1.7-0.5 0.7-1.4 1.2v0.2q1.4 0.3 2.2 1.3 0.7 0.9 0.7 2.3 0 2.1-1.2 3.3-1.3 1.1-3.8 1.1zm5.6-8.8q2.1 0 2.1-1.8 0-1-0.5-1.4-0.5-0.5-1.6-0.5h-2.7v3.7zm0.5 6.5q2.4 0 2.4-2.2 0-2.1-2.4-2.1h-3.3v4.3z"/>
			</g>
		</g>
	</g>
	<g id="Layer">
		<g id="Layer">
			<g id="Layer">
				<path id="Layer" class="s0" d="m26.7 146.6q-3 0-4.5-1.4-1.4-1.5-1.4-4.3v-9.1h2.8v9.1q0 1.6 0.8 2.4 0.7 0.8 2.3 0.8 3.1 0 3.1-3.2v-9.1h2.9v9.1q-0.1 2.8-1.5 4.3-1.5 1.4-4.5 1.4z"/>
			</g>
		</g>
	</g>
	<g id="Layer">
		<g id="Layer">
			<g id="Layer">
				<path id="Layer" class="s0" d="m40.2 146.4h-2.8v-14.6h3.3l5.9 9.4h0.2v-9.4h2.8v14.6h-3l-6.2-10.1-0.2 0.1z"/>
			</g>
		</g>
	</g>
	<g id="Layer">
		<g id="Layer">
			<g id="Layer">
				<path id="Layer" class="s0" d="m59.6 146.6q-1.8 0-3.1-0.8-1.4-0.9-2.1-2.5-0.7-1.7-0.7-4.2 0-2.5 0.9-4.2 0.8-1.7 2.4-2.5 1.5-0.8 3.6-0.8 2.1 0 3.5 0.7 1.5 0.8 2.1 2.4l-2.1 1.2h-0.2q-0.5-0.9-1.3-1.4-0.8-0.5-2-0.5-1.9 0-2.9 1.3-1 1.1-1 3.8 0 2.6 0.9 3.8 0.9 1.2 2.8 1.2 1.5 0 2.3-0.7 0.7-0.7 0.7-2.1v-0.6h-3.4v-2.4h6.3v8.1h-2.7v-2h-0.2q-0.5 1.1-1.4 1.6-0.9 0.6-2.4 0.6z"/>
			</g>
		</g>
	</g>
	<g id="Layer">
		<g id="Layer">
			<g id="Layer">
				<path id="Layer" fill-rule="evenodd" class="s0" d="m82.8 146.4h-3l-1.1-3.4h-5.6l-1.1 3.4h-3l5.1-14.6h3.7zm-7.1-11.6l-1.9 5.8h4.1l-1.9-5.8z"/>
			</g>
		</g>
	</g>
	<g id="Layer">
		<g id="Layer">
			<g id="Layer">
				<path id="Layer" class="s0" d="m88.9 131.8v12.2h6.5v2.4h-9.4v-14.6z"/>
			</g>
		</g>
	</g>
	<g id="Layer">
		<g id="Layer">
			<g id="Layer">
				<path id="Layer" fill-rule="evenodd" class="s0" d="m104.9 146.6q-2 0-3.5-0.8-1.6-0.8-2.4-2.5-0.9-1.7-0.9-4.2 0-2.5 0.9-4.2 0.8-1.7 2.4-2.5 1.5-0.8 3.5-0.8 2 0 3.6 0.8 1.5 0.8 2.3 2.5 0.9 1.7 0.9 4.2 0 2.5-0.9 4.2-0.8 1.7-2.3 2.5-1.6 0.8-3.6 0.8zm0-2.5q1.9 0 2.9-1.2 0.9-1.2 0.9-3.8 0-2.6-0.9-3.8-1-1.2-2.9-1.2-1.9 0-2.9 1.2-0.9 1.2-0.9 3.8 0 2.6 0.9 3.8 1 1.2 2.9 1.2z"/>
			</g>
		</g>
	</g>
	<g id="Layer">
		<g id="Layer">
			<g id="Layer">
				<path id="Layer" class="s0" d="m120.9 146.4h-3.3l-3.3-14.6h2.9l2.2 10.2h0.2l2.6-10.2h2.5l2.7 10.2h0.2l2.3-10.2h2.7l-3.3 14.6h-3.2l-2.6-9.4h-0.2z"/>
			</g>
		</g>
	</g>
	<g id="Layer">
		<g id="Layer">
			<g id="Layer">
			</g>
		</g>
	</g>
	<g id="Layer">
		<g id="Layer">
			<g id="Layer">
				<path id="Layer" fill-rule="evenodd" class="s0" d="m141.8 146.4v-14.6h5.9q2.2 0 3.4 1 1.2 1.1 1.2 2.9 0 1.3-0.7 2.2-0.7 0.8-2 1.3v0.2q0.7 0.3 1.1 0.9 0.4 0.6 0.8 1.7l1.4 4.4h-2.9l-1.5-4.4q-0.2-0.6-0.5-1-0.2-0.4-0.7-0.5-0.4-0.2-1.1-0.2h-1.5v6.1zm5.5-8.4q2.1 0 2.1-2 0-1.9-2.1-1.9h-2.6v3.9z"/>
			</g>
		</g>
	</g>
	<g id="Layer">
		<g id="Layer">
			<g id="Layer">
				<path id="Layer" class="s0" d="m159.4 140v4h7v2.4h-9.9v-14.6h9.7v2.4h-6.8v3.4h5.9v2.4z"/>
			</g>
		</g>
	</g>
	<g id="Layer">
		<g id="Layer">
			<g id="Layer">
				<path id="Layer" class="s0" d="m172.9 146.4h-2.8v-14.6h3.3l5.9 9.4h0.2v-9.4h2.8v14.6h-3l-6.2-10.1-0.2 0.1z"/>
			</g>
		</g>
	</g>
	<g id="Layer">
		<g id="Layer">
			<g id="Layer">
				<path id="Layer" class="s0" d="m197 131.8v2.4h-4.3v12.2h-2.8v-12.2h-4.3v-2.4z"/>
			</g>
		</g>
	</g>
	<g id="Layer">
		<g id="Layer">
			<g id="Layer">
				<path id="Layer" fill-rule="evenodd" class="s0" d="m30.8 155.1q0.8 0 1.3 0.2 0.5 0.3 0.8 0.8 0.3 0.5 0.3 1.2 0 0.7-0.3 1.2-0.3 0.5-0.8 0.7-0.5 0.3-1.3 0.3h-1.7v2.9h-0.9v-7.3zm0 3.7q1.5 0 1.5-1.5 0-1.5-1.5-1.5h-1.7v3z"/>
			</g>
		</g>
	</g>
	<g id="Layer">
		<g id="Layer">
			<g id="Layer">
				<path id="Layer" fill-rule="evenodd" class="s0" d="m35.8 162.4v-7.3h2.7q0.7 0 1.2 0.2 0.5 0.2 0.8 0.7 0.2 0.4 0.2 1 0 0.7-0.3 1.2-0.4 0.4-1.1 0.6v0.1q0.4 0.2 0.6 0.5 0.2 0.3 0.4 0.9l0.7 2.1h-0.9l-0.7-2.3q-0.2-0.3-0.3-0.6-0.2-0.2-0.5-0.3-0.2-0.1-0.6-0.1h-1.3v3.3zm2.6-4q0.7 0 1-0.3 0.4-0.4 0.4-1 0-0.7-0.4-1-0.3-0.3-1-0.3h-1.8v2.6z"/>
			</g>
		</g>
	</g>
	<g id="Layer">
		<g id="Layer">
			<g id="Layer">
				<path id="Layer" fill-rule="evenodd" class="s0" d="m46.4 162.5q-0.9 0-1.6-0.4-0.8-0.4-1.2-1.3-0.4-0.8-0.4-2.1 0-1.2 0.4-2.1 0.4-0.8 1.2-1.2 0.7-0.4 1.6-0.4 1 0 1.7 0.4 0.8 0.4 1.2 1.2 0.4 0.9 0.4 2.1 0 1.3-0.4 2.1-0.4 0.9-1.2 1.3-0.7 0.4-1.7 0.4zm0-0.8q1.2 0 1.8-0.7 0.6-0.7 0.6-2.3 0-1.5-0.6-2.2-0.6-0.7-1.8-0.7-2.3 0-2.3 2.9 0 3 2.3 3z"/>
			</g>
		</g>
	</g>
	<g id="Layer">
		<g id="Layer">
			<g id="Layer">
				<path id="Layer" fill-rule="evenodd" class="s0" d="m55.1 155.1q0.8 0 1.3 0.2 0.6 0.3 0.9 0.8 0.2 0.5 0.2 1.2 0 0.7-0.2 1.2-0.3 0.5-0.9 0.7-0.5 0.3-1.3 0.3h-1.7v2.9h-0.9v-7.3zm0 3.7q1.5 0 1.5-1.5 0-1.5-1.5-1.5h-1.7v3z"/>
			</g>
		</g>
	</g>
	<g id="Layer">
		<g id="Layer">
			<g id="Layer">
				<path id="Layer" class="s0" d="m61 158.9v2.8h3.7v0.7h-4.5v-7.3h4.5v0.7h-3.7v2.4h3.2v0.7z"/>
			</g>
		</g>
	</g>
	<g id="Layer">
		<g id="Layer">
			<g id="Layer">
				<path id="Layer" fill-rule="evenodd" class="s0" d="m67.3 162.4v-7.3h2.6q0.8 0 1.3 0.2 0.5 0.2 0.7 0.7 0.3 0.4 0.3 1 0 0.7-0.4 1.2-0.3 0.4-1 0.6v0.1q0.3 0.2 0.5 0.5 0.3 0.3 0.5 0.9l0.6 2.1h-0.8l-0.8-2.3q-0.1-0.3-0.3-0.6-0.2-0.2-0.4-0.3-0.3-0.1-0.7-0.1h-1.3v3.3zm2.7-4q0.7 0 1-0.3 0.3-0.4 0.3-1 0-0.7-0.3-1-0.3-0.3-1-0.3h-1.8v2.6z"/>
			</g>
		</g>
	</g>
	<g id="Layer">
		<g id="Layer">
			<g id="Layer">
				<path id="Layer" class="s0" d="m79.6 155.1v0.7h-2.3v6.6h-0.8v-6.6h-2.3v-0.7z"/>
			</g>
		</g>
	</g>
	<g id="Layer">
		<g id="Layer">
			<g id="Layer">
				<path id="Layer" class="s0" d="m84.4 162.4h-0.9v-2.9l-2.5-4.4h1l1.9 3.4h0.1l2-3.4h0.9l-2.5 4.4z"/>
			</g>
		</g>
	</g>
	<g id="Layer">
		<g id="Layer">
			<g id="Layer">
			</g>
		</g>
	</g>
	<g id="Layer">
		<g id="Layer">
			<g id="Layer">
				<path id="Layer" class="s0" d="m93.4 162.4h-0.7v-7.3h1.2l2.2 6.1h0.1l2.2-6.1h1.3v7.3h-0.8v-6h-0.2l-2.1 6h-0.9l-2.1-6h-0.2z"/>
			</g>
		</g>
	</g>
	<g id="Layer">
		<g id="Layer">
			<g id="Layer">
				<path id="Layer" fill-rule="evenodd" class="s0" d="m108.3 162.4h-0.9l-0.7-2h-3.1l-0.7 2h-0.9l2.6-7.3h1.2zm-3.2-6.5l-1.3 3.7h2.6l-1.2-3.7z"/>
			</g>
		</g>
	</g>
	<g id="Layer">
		<g id="Layer">
			<g id="Layer">
				<path id="Layer" class="s0" d="m111.5 162.4h-0.8v-7.3h1l3.6 5.6 0.1-0.1v-5.5h0.9v7.3h-0.9l-3.8-6h-0.1z"/>
			</g>
		</g>
	</g>
	<g id="Layer">
		<g id="Layer">
			<g id="Layer">
				<path id="Layer" fill-rule="evenodd" class="s0" d="m124.9 162.4h-0.9l-0.7-2h-3.1l-0.7 2h-0.9l2.6-7.3h1.2zm-3.3-6.5l-1.2 3.7h2.6l-1.2-3.7z"/>
			</g>
		</g>
	</g>
	<g id="Layer">
		<g id="Layer">
			<g id="Layer">
				<path id="Layer" class="s0" d="m130 162.5q-0.9 0-1.6-0.4-0.7-0.5-1.1-1.3-0.4-0.8-0.4-2.1 0-1.2 0.4-2 0.4-0.9 1.2-1.3 0.7-0.4 1.7-0.4 1.1 0 1.7 0.3 0.7 0.4 1 1.2l-0.6 0.3h-0.1q-0.3-0.6-0.8-0.8-0.5-0.3-1.2-0.3-2.4 0-2.4 3 0 1.6 0.6 2.3 0.6 0.7 1.7 0.7 1 0 1.5-0.5 0.5-0.4 0.5-1.4v-0.6h-2.1v-0.7h2.9v3.9h-0.8v-1h-0.1q-0.3 0.5-0.8 0.8-0.5 0.3-1.2 0.3z"/>
			</g>
		</g>
	</g>
	<g id="Layer">
		<g id="Layer">
			<g id="Layer">
				<path id="Layer" class="s0" d="m136.7 158.9v2.8h3.7v0.7h-4.6v-7.3h4.5v0.7h-3.6v2.4h3.2v0.7z"/>
			</g>
		</g>
	</g>
	<g id="Layer">
		<g id="Layer">
			<g id="Layer">
				<path id="Layer" class="s0" d="m143.7 162.4h-0.7v-7.3h1.2l2.2 6.1h0.1l2.2-6.1h1.3v7.3h-0.8v-6h-0.2l-2.1 6h-0.9l-2.1-6h-0.2z"/>
			</g>
		</g>
	</g>
	<g id="Layer">
		<g id="Layer">
			<g id="Layer">
				<path id="Layer" class="s0" d="m154 158.9v2.8h3.7v0.7h-4.5v-7.3h4.5v0.7h-3.7v2.4h3.2v0.7z"/>
			</g>
		</g>
	</g>
	<g id="Layer">
		<g id="Layer">
			<g id="Layer">
				<path id="Layer" class="s0" d="m161.1 162.4h-0.8v-7.3h1l3.6 5.6 0.1-0.1v-5.5h0.9v7.3h-0.9l-3.8-6h-0.1z"/>
			</g>
		</g>
	</g>
	<g id="Layer">
		<g id="Layer">
			<g id="Layer">
				<path id="Layer" class="s0" d="m173.6 155.1v0.7h-2.3v6.6h-0.8v-6.6h-2.3v-0.7z"/>
			</g>
		</g>
	</g>
</svg>