<svg version="1.2" xmlns="http://www.w3.org/2000/svg" viewBox="0 0 202 181" width="202" height="181">
	<title>logo-svg</title>
	<defs>
		<clipPath clipPathUnits="userSpaceOnUse" id="cp1">
			<path d="m54 11.45h97.41v92.55h-97.41z"/>
		</clipPath>
		<clipPath clipPathUnits="userSpaceOnUse" id="cp2">
			<path d="m101 34h4v86.94h-4z"/>
		</clipPath>
	</defs>
	<style>
		.s0 { fill: #020200 } 
	</style>
	<g id="Clip-Path" clip-path="url(#cp1)">
		<g id="Layer">
			<path id="Layer" class="s0" d="m150.6 55.1l-27-23.6v-18.6c0-0.8-0.7-1.5-1.5-1.5-0.8 0-1.5 0.7-1.5 1.5v16l-16.6-14.4c-0.5-0.5-1.4-0.5-1.9 0l-47.4 40.6c-0.6 0.5-0.7 1.5-0.2 2.1 0.3 0.3 0.7 0.5 1.1 0.5 0.4 0 0.7-0.1 1-0.3l46.4-39.8 17.6 15.3v69.3c0 0.9 0.7 1.5 1.5 1.5 0.8 0 1.5-0.6 1.5-1.5v-66.7l25.1 21.8c0.6 0.6 1.5 0.5 2.1-0.1 0.5-0.6 0.5-1.5-0.2-2.1z"/>
		</g>
	</g>
	<path id="Layer" class="s0" d="m64.8 63.9c-0.9 0-1.5 0.7-1.5 1.5v14.7c0 0.8 0.6 1.5 1.5 1.5 0.8 0 1.5-0.7 1.5-1.5v-14.7c0-0.8-0.7-1.5-1.5-1.5z"/>
	<path id="Layer" class="s0" d="m141.3 63.9c-0.8 0-1.5 0.7-1.5 1.5v14.7c0 0.8 0.7 1.5 1.5 1.5 0.8 0 1.5-0.7 1.5-1.5v-14.7c0-0.8-0.7-1.5-1.5-1.5z"/>
	<path id="Layer" class="s0" d="m83.8 46.5c-0.8 0-1.5 0.7-1.5 1.5v48.3c0 0.8 0.7 1.5 1.5 1.5 0.8 0 1.5-0.7 1.5-1.5v-48.3c0-0.8-0.7-1.5-1.5-1.5z"/>
	<g id="Clip-Path" clip-path="url(#cp2)">
		<g id="Layer">
			<path id="Layer" class="s0" d="m102.7 34.5c-0.9 0-1.5 0.6-1.5 1.4v83.6c0 0.8 0.6 1.4 1.5 1.4 0.8 0 1.4-0.6 1.4-1.4v-83.6c0-0.8-0.6-1.4-1.4-1.4z"/>
		</g>
	</g>
	<g id="Layer">
		<g id="Layer">
			<g id="Layer">
				<path id="Layer" fill-rule="evenodd" class="s0" d="m7.5 154.5v-14.6h6.3q1.3 0 2.2 0.4 1 0.5 1.5 1.2 0.4 0.8 0.4 1.9 0 1-0.4 1.7-0.5 0.7-1.4 1.2v0.2q1.4 0.4 2.1 1.3 0.8 1 0.8 2.3 0 2.1-1.3 3.3-1.2 1.1-3.7 1.1zm5.6-8.8q2 0 2-1.8 0-0.9-0.5-1.4-0.5-0.4-1.5-0.4h-2.7v3.6zm0.5 6.5q2.4 0 2.4-2.2 0-2.1-2.4-2.1h-3.3v4.3z"/>
			</g>
		</g>
	</g>
	<g id="Layer">
		<g id="Layer">
			<g id="Layer">
				<path id="Layer" class="s0" d="m28.7 154.7q-3 0-4.5-1.4-1.5-1.4-1.5-4.3v-9.1h2.9v9.1q0 1.6 0.7 2.4 0.8 0.8 2.4 0.8 3.1 0 3.1-3.2v-9.1h2.8v9.1q0 2.9-1.4 4.3-1.5 1.4-4.5 1.4z"/>
			</g>
		</g>
	</g>
	<g id="Layer">
		<g id="Layer">
			<g id="Layer">
				<path id="Layer" class="s0" d="m42.2 154.5h-2.8v-14.6h3.3l5.8 9.4h0.3v-9.4h2.8v14.6h-3l-6.2-10h-0.2z"/>
			</g>
		</g>
	</g>
	<g id="Layer">
		<g id="Layer">
			<g id="Layer">
				<path id="Layer" class="s0" d="m61.6 154.7q-1.8 0-3.2-0.8-1.3-0.8-2-2.5-0.7-1.7-0.7-4.2 0-2.5 0.8-4.2 0.9-1.7 2.5-2.5 1.5-0.8 3.5-0.8 2.1 0 3.6 0.8 1.5 0.8 2.1 2.3l-2.1 1.3-0.3-0.1q-0.4-0.9-1.2-1.4-0.8-0.4-2.1-0.4-1.9 0-2.9 1.2-1 1.2-1 3.8 0 2.7 1 3.9 0.9 1.2 2.7 1.1 1.6 0 2.4-0.7 0.7-0.7 0.7-2.1v-0.6h-3.4v-2.4h6.3v8.1h-2.8v-1.9l-0.2-0.1q-0.4 1.1-1.3 1.7-0.9 0.5-2.4 0.5z"/>
			</g>
		</g>
	</g>
	<g id="Layer">
		<g id="Layer">
			<g id="Layer">
				<path id="Layer" fill-rule="evenodd" class="s0" d="m84.8 154.5h-3l-1.1-3.4h-5.6l-1.1 3.4h-3l5.1-14.6h3.7zm-7.1-11.6l-1.9 5.8h4l-1.9-5.8z"/>
			</g>
		</g>
	</g>
	<g id="Layer">
		<g id="Layer">
			<g id="Layer">
				<path id="Layer" class="s0" d="m90.9 139.9v12.2h6.5v2.4h-9.4v-14.6z"/>
			</g>
		</g>
	</g>
	<g id="Layer">
		<g id="Layer">
			<g id="Layer">
				<path id="Layer" fill-rule="evenodd" class="s0" d="m106.9 154.7q-2 0-3.5-0.8-1.6-0.8-2.5-2.5-0.8-1.7-0.8-4.2 0-2.5 0.8-4.2 0.9-1.7 2.5-2.5 1.5-0.8 3.5-0.8 2 0 3.5 0.8 1.6 0.8 2.4 2.5 0.9 1.7 0.9 4.2 0 2.5-0.9 4.2-0.8 1.7-2.4 2.5-1.5 0.8-3.5 0.8zm0-2.5q1.9 0 2.8-1.2 1-1.2 1-3.8 0-2.6-1-3.8-0.9-1.2-2.8-1.2-1.9 0-2.9 1.2-0.9 1.2-0.9 3.8 0 2.6 0.9 3.8 1 1.2 2.9 1.2z"/>
			</g>
		</g>
	</g>
	<g id="Layer">
		<g id="Layer">
			<g id="Layer">
				<path id="Layer" class="s0" d="m122.9 154.5h-3.3l-3.3-14.6h2.9l2.2 10.3h0.2l2.6-10.3h2.5l2.7 10.3h0.2l2.3-10.3h2.7l-3.3 14.6h-3.2l-2.6-9.4h-0.2z"/>
			</g>
		</g>
	</g>
	<g id="Layer">
		<g id="Layer">
			<g id="Layer">
			</g>
		</g>
	</g>
	<g id="Layer">
		<g id="Layer">
			<g id="Layer">
				<path id="Layer" fill-rule="evenodd" class="s0" d="m143.8 154.5v-14.6h5.9q2.2 0 3.4 1 1.2 1.1 1.2 2.9 0 1.4-0.7 2.2-0.7 0.9-2 1.3v0.2q0.7 0.3 1.1 0.9 0.4 0.6 0.8 1.8l1.4 4.3h-2.9l-1.5-4.4q-0.2-0.6-0.5-1-0.2-0.3-0.7-0.5-0.4-0.2-1.1-0.2h-1.5v6.1zm5.5-8.4q2.1 0 2.1-1.9 0-2-2.1-2h-2.6v3.9z"/>
			</g>
		</g>
	</g>
	<g id="Layer">
		<g id="Layer">
			<g id="Layer">
				<path id="Layer" class="s0" d="m161.4 148.1v4h7v2.4h-9.9v-14.6h9.7v2.4h-6.8v3.4h5.9v2.4z"/>
			</g>
		</g>
	</g>
	<g id="Layer">
		<g id="Layer">
			<g id="Layer">
				<path id="Layer" class="s0" d="m174.9 154.5h-2.8v-14.6h3.3l5.9 9.4h0.2v-9.4h2.8v14.6h-3l-6.2-10h-0.2z"/>
			</g>
		</g>
	</g>
	<g id="Layer">
		<g id="Layer">
			<g id="Layer">
				<path id="Layer" class="s0" d="m199 139.9v2.4h-4.3v12.2h-2.8v-12.2h-4.2v-2.4z"/>
			</g>
		</g>
	</g>
	<g id="Layer">
		<g id="Layer">
			<g id="Layer">
				<path id="Layer" fill-rule="evenodd" class="s0" d="m32.7 162.1q0.8 0 1.3 0.2 0.6 0.3 0.9 0.8 0.2 0.5 0.2 1.2 0 0.7-0.2 1.2-0.3 0.5-0.9 0.7-0.5 0.3-1.3 0.3h-1.7v2.9h-0.9v-7.3zm0 3.7q1.5 0 1.5-1.5 0-1.5-1.5-1.5h-1.7v3z"/>
			</g>
		</g>
	</g>
	<g id="Layer">
		<g id="Layer">
			<g id="Layer">
				<path id="Layer" fill-rule="evenodd" class="s0" d="m37.8 169.4v-7.3h2.6q0.8 0 1.2 0.2 0.5 0.2 0.8 0.7 0.2 0.4 0.2 1 0 0.7-0.3 1.2-0.3 0.4-1 0.6v0.1q0.3 0.2 0.5 0.5 0.2 0.3 0.5 0.9l0.6 2.1h-0.9l-0.7-2.3q-0.1-0.4-0.3-0.6-0.2-0.2-0.4-0.3-0.3-0.1-0.7-0.1h-1.3v3.3zm2.7-4q0.6 0 1-0.3 0.3-0.4 0.3-1 0-0.7-0.3-1-0.4-0.3-1-0.3h-1.8v2.6z"/>
			</g>
		</g>
	</g>
	<g id="Layer">
		<g id="Layer">
			<g id="Layer">
				<path id="Layer" fill-rule="evenodd" class="s0" d="m48.4 169.5q-0.9 0-1.7-0.4-0.7-0.5-1.2-1.3-0.4-0.8-0.4-2.1 0-1.2 0.4-2.1 0.5-0.8 1.2-1.2 0.8-0.4 1.7-0.4 0.9 0 1.7 0.4 0.7 0.4 1.2 1.2 0.4 0.9 0.4 2.1 0 1.3-0.4 2.1-0.5 0.8-1.2 1.3-0.8 0.4-1.7 0.4zm0-0.8q1.1 0 1.7-0.7 0.7-0.7 0.7-2.3 0-1.5-0.7-2.2-0.6-0.7-1.7-0.7-2.4 0-2.4 2.9 0 3 2.4 3z"/>
			</g>
		</g>
	</g>
	<g id="Layer">
		<g id="Layer">
			<g id="Layer">
				<path id="Layer" fill-rule="evenodd" class="s0" d="m57.1 162.1q0.7 0 1.3 0.2 0.5 0.3 0.8 0.8 0.3 0.5 0.3 1.2 0 0.7-0.3 1.2-0.3 0.5-0.8 0.7-0.6 0.3-1.3 0.3h-1.8v2.9h-0.8v-7.3zm0 3.7q1.5 0 1.5-1.5 0-1.5-1.5-1.5h-1.8v3z"/>
			</g>
		</g>
	</g>
	<g id="Layer">
		<g id="Layer">
			<g id="Layer">
				<path id="Layer" class="s0" d="m63 165.9v2.8h3.7v0.7h-4.6v-7.3h4.5v0.7h-3.6v2.4h3.2v0.7z"/>
			</g>
		</g>
	</g>
	<g id="Layer">
		<g id="Layer">
			<g id="Layer">
				<path id="Layer" fill-rule="evenodd" class="s0" d="m69.3 169.4v-7.3h2.6q0.7 0 1.2 0.2 0.5 0.2 0.8 0.7 0.2 0.4 0.2 1 0 0.7-0.3 1.2-0.3 0.4-1.1 0.6v0.1q0.4 0.2 0.6 0.5 0.2 0.3 0.4 0.9l0.7 2.1h-0.9l-0.7-2.3q-0.1-0.4-0.3-0.6-0.2-0.2-0.5-0.3-0.2-0.1-0.6-0.1h-1.3v3.3zm2.6-4q0.7 0 1.1-0.3 0.3-0.4 0.3-1 0-0.7-0.3-1-0.4-0.3-1.1-0.3h-1.7v2.6z"/>
			</g>
		</g>
	</g>
	<g id="Layer">
		<g id="Layer">
			<g id="Layer">
				<path id="Layer" class="s0" d="m81.6 162.1v0.7h-2.3v6.6h-0.9v-6.6h-2.3v-0.7z"/>
			</g>
		</g>
	</g>
	<g id="Layer">
		<g id="Layer">
			<g id="Layer">
				<path id="Layer" class="s0" d="m86.4 169.4h-0.9v-2.9l-2.5-4.4h0.9l2 3.4h0.1l2-3.4h0.9l-2.5 4.4z"/>
			</g>
		</g>
	</g>
	<g id="Layer">
		<g id="Layer">
			<g id="Layer">
			</g>
		</g>
	</g>
	<g id="Layer">
		<g id="Layer">
			<g id="Layer">
				<path id="Layer" class="s0" d="m95.4 169.4h-0.8v-7.3h1.3l2.2 6.1h0.1l2.2-6.1h1.3v7.3h-0.8v-6h-0.2l-2.1 6h-0.9l-2.1-6h-0.2z"/>
			</g>
		</g>
	</g>
	<g id="Layer">
		<g id="Layer">
			<g id="Layer">
				<path id="Layer" fill-rule="evenodd" class="s0" d="m110.3 169.4h-0.9l-0.7-2h-3.1l-0.7 2h-0.9l2.6-7.3h1.2zm-3.2-6.5l-1.3 3.7h2.6l-1.2-3.7z"/>
			</g>
		</g>
	</g>
	<g id="Layer">
		<g id="Layer">
			<g id="Layer">
				<path id="Layer" class="s0" d="m113.5 169.4h-0.8v-7.3h1l3.6 5.5h0.1v-5.5h0.9v7.3h-0.9l-3.8-6h-0.1z"/>
			</g>
		</g>
	</g>
	<g id="Layer">
		<g id="Layer">
			<g id="Layer">
				<path id="Layer" fill-rule="evenodd" class="s0" d="m126.9 169.4h-0.9l-0.7-2h-3.1l-0.7 2h-0.9l2.6-7.3h1.2zm-3.2-6.5l-1.3 3.7h2.6l-1.2-3.7z"/>
			</g>
		</g>
	</g>
	<g id="Layer">
		<g id="Layer">
			<g id="Layer">
				<path id="Layer" class="s0" d="m132 169.5q-0.9 0-1.6-0.4-0.7-0.5-1.1-1.3-0.4-0.9-0.4-2.1 0-1.2 0.4-2.1 0.5-0.8 1.2-1.2 0.8-0.4 1.7-0.4 1.1 0 1.8 0.3 0.6 0.4 0.9 1.2l-0.5 0.3h-0.2q-0.3-0.6-0.7-0.8-0.5-0.3-1.3-0.3-2.4 0-2.4 3 0 1.6 0.6 2.3 0.6 0.7 1.7 0.7 1 0 1.5-0.5 0.5-0.4 0.5-1.4v-0.6h-2.1v-0.7h3v3.9h-0.8v-1h-0.1q-0.3 0.5-0.9 0.8-0.5 0.3-1.2 0.3z"/>
			</g>
		</g>
	</g>
	<g id="Layer">
		<g id="Layer">
			<g id="Layer">
				<path id="Layer" class="s0" d="m138.7 165.9v2.8h3.7v0.7h-4.5v-7.3h4.5v0.7h-3.7v2.4h3.2v0.7z"/>
			</g>
		</g>
	</g>
	<g id="Layer">
		<g id="Layer">
			<g id="Layer">
				<path id="Layer" class="s0" d="m145.8 169.4h-0.8v-7.3h1.3l2.2 6.1h0.1l2.2-6.1h1.2v7.3h-0.8v-6h-0.1l-2.2 6h-0.8l-2.2-6h-0.1z"/>
			</g>
		</g>
	</g>
	<g id="Layer">
		<g id="Layer">
			<g id="Layer">
				<path id="Layer" class="s0" d="m156.1 165.9v2.8h3.7v0.7h-4.6v-7.3h4.5v0.7h-3.6v2.4h3.2v0.7z"/>
			</g>
		</g>
	</g>
	<g id="Layer">
		<g id="Layer">
			<g id="Layer">
				<path id="Layer" class="s0" d="m163.2 169.4h-0.9v-7.3h1.1l3.6 5.5h0.1v-5.5h0.8v7.3h-0.9l-3.7-6h-0.1z"/>
			</g>
		</g>
	</g>
	<g id="Layer">
		<g id="Layer">
			<g id="Layer">
				<path id="Layer" class="s0" d="m175.7 162.1v0.7h-2.3v6.6h-0.8v-6.6h-2.3v-0.7z"/>
			</g>
		</g>
	</g>
</svg>